<?xml version="1.0" encoding="UTF-8"?>
<svg version="1.1" xmlns="http://www.w3.org/2000/svg" width="847" height="539">
<path d="M0 0 C5.80077904 0.51626981 10.17990492 2.20272608 15.37890625 4.76171875 C16.57317986 5.33496887 16.57317986 5.33496887 17.7915802 5.9197998 C20.38608009 7.16720294 22.97412495 8.42744437 25.5625 9.6875 C27.37462609 10.56076623 29.18729484 11.4329072 31.00048828 12.30395508 C33.74199751 13.62107943 36.48319026 14.93881256 39.22271729 16.26005554 C46.91058754 19.96733271 54.63317614 23.59455672 62.375 27.1875 C64.75409471 28.29386566 67.13299951 29.40063979 69.51171875 30.5078125 C70.10432495 30.78360138 70.69693115 31.05939026 71.30749512 31.34353638 C80.7113155 35.72392834 90.09064159 40.15683256 99.47216797 44.5847168 C106.95563747 48.11416749 114.45392856 51.60581112 122 55 C121.09929637 59.08333742 119.25432444 62.40048427 117.1875 66 C116.58917358 67.05223755 116.58917358 67.05223755 115.97875977 68.12573242 C111.8802319 75.28972381 107.61876899 82.35521814 103.35546875 89.421875 C99.62156149 95.61643718 95.93431718 101.83835186 92.25 108.0625 C91.57047543 109.21028656 90.89095069 110.35807302 90.21142578 111.50585938 C89.17955688 113.24895821 88.14776927 114.99210503 87.1161499 116.73535156 C84.36520559 121.38390583 81.61142767 126.03077541 78.85681152 130.67715454 C75.85905482 135.73369064 72.86257134 140.79097995 69.86669922 145.84863281 C68.665367 147.87672545 67.46388189 149.90472755 66.26220703 151.93261719 C60.20095913 162.16330666 54.17052115 172.4108505 48.1875 182.6875 C4.50948876 257.61903927 4.50948876 257.61903927 -23 290 C-23.89597576 291.07019327 -24.79180024 292.14051321 -25.6875 293.2109375 C-40.93228277 311.32023505 -57.12070165 327.68648167 -76 342 C-76.6074707 342.46438477 -77.21494141 342.92876953 -77.84082031 343.40722656 C-86.86531953 350.28371438 -96.13781919 356.39625023 -106 362 C-106.57621094 362.33596191 -107.15242188 362.67192383 -107.74609375 363.01806641 C-145.15573284 384.7661304 -190.73465962 393.46428778 -232.98046875 382.78125 C-256.9502967 376.2855829 -278.64019507 364.43777549 -298 349 C-298.8971875 348.29488281 -299.794375 347.58976562 -300.71875 346.86328125 C-316.27288946 334.4155001 -331.22528618 320.29449682 -344 305 C-344.76828125 304.12085938 -345.5365625 303.24171875 -346.328125 302.3359375 C-354.76303292 292.63871614 -362.40977937 282.36447807 -370 272 C-370.53802246 271.2673291 -371.07604492 270.5346582 -371.63037109 269.77978516 C-390.99374175 243.283512 -407.73981829 214.30421284 -418.70703125 183.2890625 C-418.95557861 182.5873291 -419.20412598 181.8855957 -419.46020508 181.16259766 C-420.07228257 178.71041204 -420.03593251 176.51872102 -420 174 C-409.49863841 171.05251116 -398.99715422 168.10545955 -388.49551678 165.15895367 C-383.61828964 163.79050697 -378.74110357 162.42191426 -373.86401367 161.05297852 C-369.1502993 159.72990612 -364.43647404 158.40722947 -359.72257423 157.08481789 C-357.93137536 156.5822517 -356.14021532 156.07954708 -354.3490963 155.5766964 C-349.5698165 154.23497967 -344.78972588 152.89624695 -340.00832748 151.56209946 C-338.16527491 151.04625786 -336.32372502 150.52505518 -334.48233032 150.00332642 C-333.00571426 149.58946182 -333.00571426 149.58946182 -331.49926758 149.16723633 C-330.68468582 148.93684158 -329.87010406 148.70644684 -329.03083801 148.46907043 C-327 148 -327 148 -324 148 C-323.69147095 149.2060791 -323.69147095 149.2060791 -323.37670898 150.43652344 C-315.59460519 180.68467846 -305.66091511 209.30867638 -291 237 C-290.62407715 237.71462402 -290.2481543 238.42924805 -289.86083984 239.16552734 C-281.71363576 254.54950296 -272.39079916 268.80309215 -261 282 C-260.29488281 282.83917969 -259.58976563 283.67835938 -258.86328125 284.54296875 C-249.14943653 295.79149629 -235.65815283 308.67875551 -220 310 C-194.25121956 310.23809969 -174.6309691 293.83745151 -157 277 C-156.19691406 276.23816406 -155.39382813 275.47632813 -154.56640625 274.69140625 C-148.8845391 269.16709521 -143.93131487 263.19373147 -139 257 C-138.05216599 255.84131379 -137.10288028 254.68381397 -136.15234375 253.52734375 C-128.91646355 244.67930001 -122.3083114 235.52841556 -116 226 C-115.55301758 225.32743164 -115.10603516 224.65486328 -114.64550781 223.96191406 C-103.2799056 206.80304593 -92.75857678 189.11935361 -83 171 C-82.56284668 170.18885742 -82.12569336 169.37771484 -81.67529297 168.54199219 C-72.26342672 150.98259042 -63.64749641 133.03458216 -55.00585938 115.08850098 C-52.93578351 110.79033011 -50.86175134 106.49406758 -48.78833008 102.19750977 C-47.67551627 99.89103042 -46.56337898 97.58422457 -45.4519043 95.27709961 C-42.10945117 88.34521872 -38.74545209 81.4243118 -35.36328125 74.51171875 C-26.50353495 56.39807517 -17.76668244 38.24850108 -9.34863281 19.92480469 C-7.31852101 15.52206403 -5.25625311 11.13468922 -3.1875 6.75 C-2.85532471 6.04568848 -2.52314941 5.34137695 -2.1809082 4.61572266 C-1.4546001 3.07683615 -0.72742417 1.53835926 0 0 Z " fill="#6A8FCB" transform="translate(677,113)"/>
<path d="M0 0 C0.86890869 0.69319336 0.86890869 0.69319336 1.75537109 1.40039062 C16.543925 13.31990539 30.41088741 26.94722406 42 42 C42.89766562 43.1004189 43.79896399 44.19788054 44.703125 45.29296875 C53.05709918 55.45741032 60.59113268 66.13366126 68 77 C68.52094238 77.7621582 69.04188477 78.52431641 69.57861328 79.30957031 C115.54716923 146.77740267 115.54716923 146.77740267 112.54711914 164.70654297 C112.36656982 165.46338379 112.18602051 166.22022461 112 167 C101.53405827 169.95061406 91.06718408 172.89789503 80.59914112 175.84104633 C75.73727109 177.20809959 70.87571685 178.57625405 66.01489258 179.94702148 C61.31478848 181.2724199 56.61384433 182.5947998 51.91232872 183.91518211 C50.12810368 184.41682012 48.34417233 184.91950408 46.56055641 185.4233036 C36.75281456 188.19280704 26.96455042 190.84456078 17 193 C16.82184753 192.36577118 16.64369507 191.73154236 16.46014404 191.07809448 C-7.85937216 104.10553927 -7.85937216 104.10553927 -66.5234375 38.9140625 C-78.43664503 32.35510555 -91.49591672 29.94142326 -104.859375 32.8359375 C-147.37576121 45.97896975 -172.17676635 92.57467308 -191.5625 129.25 C-215.18394063 174.78779732 -233.08271314 223.2801354 -251.68359375 271.0078125 C-252.24312744 272.44321884 -252.24312744 272.44321884 -252.81396484 273.90762329 C-254.5805216 278.44099699 -256.34423535 282.97543636 -258.10205078 287.51220703 C-258.41908463 288.32841522 -258.73611847 289.14462341 -259.0627594 289.98556519 C-259.64974193 291.49677129 -260.23525053 293.00855113 -260.81895447 294.52102661 C-262.0802147 297.76398766 -263.41557159 300.9035515 -265 304 C-272.90501967 301.92420845 -280.68552204 299.56204123 -288.45703125 297.03515625 C-289.65077362 296.64930359 -290.84451599 296.26345093 -292.07443237 295.86590576 C-294.64776124 295.03376632 -297.22078339 294.20074624 -299.79330444 293.36611938 C-303.86443169 292.0452874 -307.93664113 290.72781495 -312.0090332 289.41088867 C-316.27288984 288.03186134 -320.53665935 286.65256709 -324.80003357 285.27204895 C-335.12227592 281.92966031 -345.44701969 278.59509019 -355.7734375 275.265625 C-356.49048292 275.03442396 -357.20752834 274.80322292 -357.94630241 274.56501579 C-361.48202457 273.42499573 -365.01778054 272.28508058 -368.55355835 271.14523315 C-375.14397708 269.0206148 -381.73415329 266.89524508 -388.32421875 264.76953125 C-390.04014725 264.21625153 -390.04014725 264.21625153 -391.79074097 263.65179443 C-392.83392487 263.3152887 -393.87710876 262.97878296 -394.9519043 262.63208008 C-395.8596611 262.33932693 -396.76741791 262.04657379 -397.7026825 261.74494934 C-399.47113358 261.1714951 -401.23629875 260.58790042 -403 260 C-402.63210472 254.51403213 -399.31066474 250.91250758 -396.125 246.6875 C-394.92686701 245.0649222 -393.73027772 243.44120349 -392.53515625 241.81640625 C-391.63627686 240.59848389 -391.63627686 240.59848389 -390.71923828 239.35595703 C-388.26444303 235.99202999 -385.90552516 232.56731971 -383.5625 229.125 C-379.47593563 223.13931025 -375.34761779 217.18483378 -371.1875 211.25 C-370.598479 210.40969238 -370.00945801 209.56938477 -369.40258789 208.70361328 C-368.20134297 206.99043991 -366.99992604 205.27738714 -365.79833984 203.56445312 C-362.86275013 199.37826872 -359.93159134 195.18898491 -357 191 C-355.83594837 189.33723197 -354.67188586 187.67447157 -353.5078125 186.01171875 C-351.14751876 182.63996469 -348.7882509 179.2674959 -346.4296875 175.89453125 C-340.48305871 167.39189535 -334.52321098 158.89909294 -328.53417969 150.42626953 C-322.92414591 142.48520192 -317.35389765 134.51634681 -311.78222656 126.54833984 C-308.27493444 121.53339256 -304.76463287 116.52055142 -301.25488281 111.50732422 C-298.3121436 107.30376353 -295.37015906 103.09967859 -292.4296875 98.89453125 C-289.51221977 94.72238052 -286.5908184 90.55300123 -283.66845703 86.38427734 C-282.05466984 84.07812492 -280.44677194 81.76796621 -278.83984375 79.45703125 C-272.51746682 70.39098131 -265.97964658 61.57096572 -259 53 C-258.57912109 52.47470703 -258.15824219 51.94941406 -257.72460938 51.40820312 C-244.51335765 34.99053393 -228.95500177 18.55828942 -211.77246094 6.27636719 C-209.76529063 4.83098339 -207.79378037 3.34260726 -205.8203125 1.8515625 C-143.00570645 -45.17327857 -62.18859251 -49.87926336 0 0 Z " fill="#678CCA" transform="translate(416,108)"/>
<path d="M0 0 C5.80077904 0.51626981 10.17990492 2.20272608 15.37890625 4.76171875 C16.17508865 5.1438855 16.97127106 5.52605225 17.7915802 5.9197998 C20.38608009 7.16720294 22.97412495 8.42744437 25.5625 9.6875 C27.37462609 10.56076623 29.18729484 11.4329072 31.00048828 12.30395508 C33.74199751 13.62107943 36.48319026 14.93881256 39.22271729 16.26005554 C46.91058754 19.96733271 54.63317614 23.59455672 62.375 27.1875 C64.75409471 28.29386566 67.13299951 29.40063979 69.51171875 30.5078125 C70.10432495 30.78360138 70.69693115 31.05939026 71.30749512 31.34353638 C80.7113155 35.72392834 90.09064159 40.15683256 99.47216797 44.5847168 C106.95563747 48.11416749 114.45392856 51.60581112 122 55 C121.09929637 59.08333742 119.25432444 62.40048427 117.1875 66 C116.78861572 66.7014917 116.38973145 67.4029834 115.97875977 68.12573242 C111.8802319 75.28972381 107.61876899 82.35521814 103.35546875 89.421875 C99.62156149 95.61643718 95.93431718 101.83835186 92.25 108.0625 C91.57047543 109.21028656 90.89095069 110.35807302 90.21142578 111.50585938 C89.17955688 113.24895821 88.14776927 114.99210503 87.1161499 116.73535156 C84.36520559 121.38390583 81.61142767 126.03077541 78.85681152 130.67715454 C75.85905482 135.73369064 72.86257134 140.79097995 69.86669922 145.84863281 C68.665367 147.87672545 67.46388189 149.90472755 66.26220703 151.93261719 C60.20095913 162.16330666 54.17052115 172.4108505 48.1875 182.6875 C36.601409 202.56394602 25.00877498 222.40442908 12.48193359 241.70751953 C11.12581428 243.80537133 9.78841209 245.91374318 8.45703125 248.02734375 C7.39548828 249.68443359 7.39548828 249.68443359 6.3125 251.375 C5.73113281 252.29023438 5.14976562 253.20546875 4.55078125 254.1484375 C4.03902344 254.75945312 3.52726563 255.37046875 3 256 C2.01 256 1.02 256 0 256 C-0.23847656 256.52851563 -0.47695313 257.05703125 -0.72265625 257.6015625 C-2.37780862 260.70940212 -4.38366783 263.52370919 -6.4375 266.375 C-7.10011841 267.29647827 -7.10011841 267.29647827 -7.77612305 268.23657227 C-27.50296096 295.46550756 -50.14419735 320.67574183 -77 341 C-77.66064453 341.50160645 -78.32128906 342.00321289 -79.00195312 342.52001953 C-81.01577847 344.0428908 -83.03720097 345.55492972 -85.0625 347.0625 C-85.68165283 347.52785156 -86.30080566 347.99320312 -86.9387207 348.47265625 C-90.16956922 350.84969766 -93.18729386 352.72429303 -97 354 C-93.83346097 349.55442755 -90.5197933 345.45058267 -86.75 341.5 C-73.81944272 327.30473392 -62.08960228 306.36054639 -61.2734375 286.9609375 C-61 285 -61 285 -59 283 C-58.79527165 281.08505313 -58.79527165 281.08505313 -58.9375 279 C-59.09830508 275.19661017 -59.09830508 275.19661017 -58 273 C-58 272.01 -58 271.02 -58 270 C-58 267 -58 267 -57 265 C-56.93049459 263.45976004 -56.91547643 261.91665012 -56.9375 260.375 C-56.94652344 259.55773437 -56.95554687 258.74046875 -56.96484375 257.8984375 C-56.97644531 257.27195312 -56.98804688 256.64546875 -57 256 C-56.67 256 -56.34 256 -56 256 C-56.64626492 223.79744035 -59.48927519 192.39817332 -68.06640625 161.21484375 C-68.38681885 160.04945068 -68.70723145 158.88405762 -69.03735352 157.68334961 C-69.70087245 154.86169821 -69.70087245 154.86169821 -72 154 C-71.43797763 149.09862028 -69.86450453 145.14155269 -67.67578125 140.77734375 C-67.33823318 140.08844559 -67.00068512 139.39954742 -66.65290833 138.68977356 C-65.54649648 136.43546552 -64.42945654 134.18659928 -63.3125 131.9375 C-62.53219127 130.35165449 -61.75274232 128.76538566 -60.97412109 127.17871094 C-59.3963022 123.96454038 -57.81525353 120.7519913 -56.23193359 117.54052734 C-53.15723128 111.29577931 -50.14049867 105.02353075 -47.125 98.75 C-43.22852579 90.65863701 -39.31021089 82.57858457 -35.36328125 74.51171875 C-26.50353495 56.39807517 -17.76668244 38.24850108 -9.34863281 19.92480469 C-7.31852101 15.52206403 -5.25625311 11.13468922 -3.1875 6.75 C-2.85532471 6.04568848 -2.52314941 5.34137695 -2.1809082 4.61572266 C-1.4546001 3.07683615 -0.72742417 1.53835926 0 0 Z " fill="#547CC1" transform="translate(677,113)"/>
<path d="M0 0 C0.99 0.495 0.99 0.495 2 1 C-10.37234349 18.55819811 -23.52446474 35.12122408 -38 51 C-38.84046875 51.94488281 -39.6809375 52.88976562 -40.546875 53.86328125 C-51.2961469 65.89208798 -63.1446924 76.28131806 -76 86 C-76.60602051 86.46293457 -77.21204102 86.92586914 -77.83642578 87.40283203 C-86.85854731 94.27807337 -96.12537958 100.41988902 -106 106 C-106.68255859 106.38913574 -107.36511719 106.77827148 -108.06835938 107.17919922 C-110.12118429 108.34237137 -112.18297528 109.48728268 -114.25 110.625 C-114.88228516 110.98037842 -115.51457031 111.33575684 -116.16601562 111.7019043 C-117.73695439 112.54767884 -119.36601742 113.28356149 -121 114 C-121.99 113.67 -122.98 113.34 -124 113 C-122.71029297 112.30777344 -122.71029297 112.30777344 -121.39453125 111.6015625 C-112.59283336 106.77988276 -104.80402938 101.31192472 -97 95 C-95.33333333 93.66666667 -93.66666667 92.33333333 -92 91 C-92.33 91.639375 -92.66 92.27875 -93 92.9375 C-94.07271225 94.76794567 -94.07271225 94.76794567 -94 96 C-81.09569531 87.33776285 -69.14639261 78.12825216 -57.76171875 67.5390625 C-55.59030745 65.54271548 -53.39133994 63.63458971 -51.125 61.75 C-41.03206801 52.98453088 -32.28178865 42.44163335 -24 32 C-23.07042429 30.86082397 -22.13934453 29.72287416 -21.20703125 28.5859375 C-13.68228116 19.36375522 -6.76067373 9.79338729 0 0 Z " fill="#CBDAEF" transform="translate(677,369)"/>
<path d="M0 0 C-0.99 0.495 -0.99 0.495 -2 1 C-2.59683594 0.48953125 -3.19367188 -0.0209375 -3.80859375 -0.546875 C-36.52202161 -27.96199136 -70.26105811 -42.15863969 -113 -44 C-113 -43.34 -113 -42.68 -113 -42 C-118.61 -42.33 -124.22 -42.66 -130 -43 C-130 -43.33 -130 -43.66 -130 -44 C-78.82504442 -50.13899593 -38.48832377 -32.2910513 0 0 Z " fill="#C1D2ED" transform="translate(427,117)"/>
<path d="M0 0 C0 3 0 3 -2.38671875 5.72729492 C-3.47931119 6.81941176 -4.5801754 7.90329204 -5.6875 8.98046875 C-6.26459717 9.55332108 -6.84169434 10.1261734 -7.4362793 10.71638489 C-9.28394376 12.54723565 -11.14175807 14.36739185 -13 16.1875 C-14.25328593 17.42574262 -15.50589901 18.66466668 -16.7578125 19.90429688 C-19.83078528 22.94416468 -22.91290242 25.97448016 -26 29 C-26.33 28.01 -26.66 27.02 -27 26 C-23.47942591 22.45474011 -19.95560514 18.9127519 -16.42871094 15.3737793 C-15.22891468 14.16894871 -14.03001674 12.96322288 -12.83203125 11.7565918 C-11.11172077 10.02417648 -9.38822456 8.2949873 -7.6640625 6.56640625 C-7.12754059 6.02472305 -6.59101868 5.48303986 -6.03823853 4.92494202 C-2.22774341 1.11387171 -2.22774341 1.11387171 0 0 Z " fill="#82A0D2" transform="translate(194,123)"/>
<path d="M0 0 C0 0.99 0 1.98 0 3 C-1 4 -2 5 -3 6 C-3.09958008 6.63075439 -3.19916016 7.26150879 -3.30175781 7.91137695 C-4.31339934 10.93745851 -5.9624289 11.49073706 -8.734375 12.98046875 C-10.18457031 13.76647461 -10.18457031 13.76647461 -11.6640625 14.56835938 C-12.68242188 15.10267578 -13.70078125 15.63699219 -14.75 16.1875 C-15.75289062 16.73341797 -16.75578125 17.27933594 -17.7890625 17.84179688 C-22.20849299 20.20683693 -26.00642949 22.22108836 -31 23 C-28.16937733 20.78988329 -25.21990137 18.8467815 -22.17700195 16.94189453 C-14.25996004 11.97993329 -6.52424977 6.75208071 0 0 Z " fill="#B1C8E9" transform="translate(584,460)"/>
<path d="M0 0 C-3.09545572 1.70385928 -6.20259834 3.38517398 -9.3125 5.0625 C-10.19357422 5.54783203 -11.07464844 6.03316406 -11.98242188 6.53320312 C-12.82998047 6.98759766 -13.67753906 7.44199219 -14.55078125 7.91015625 C-15.33106689 8.33433838 -16.11135254 8.75852051 -16.9152832 9.19555664 C-19 10 -19 10 -22 9 C-19.77312024 7.70425129 -17.54366825 6.41332692 -15.3125 5.125 C-14.68666016 4.76019531 -14.06082031 4.39539063 -13.41601562 4.01953125 C-4.07695537 -1.35898512 -4.07695537 -1.35898512 0 0 Z " fill="#D0DDF1" transform="translate(575,473)"/>
</svg>
